<svg xmlns="http://www.w3.org/2000/svg" version="1.1" xmlns:xlink="http://www.w3.org/1999/xlink" width="512" height="512" x="0" y="0" viewBox="0 0 4335 4335" style="enable-background:new 0 0 512 512" xml:space="preserve" fill-rule="evenodd" class=""><g><linearGradient id="a" x1="2216.75" x2="2131.08" y1="123.09" y2="4149.22" gradientUnits="userSpaceOnUse"><stop offset="0" stop-color="red"></stop><stop offset="1" stop-color="#a62424"></stop></linearGradient><linearGradient id="e" x1="2173.91" x2="2173.91" y1="1394.39" y2="2856.96" gradientUnits="userSpaceOnUse"><stop offset="0" stop-color="#fff"></stop><stop offset="1" stop-color="#ccc"></stop></linearGradient><linearGradient id="c" x1="1073.81" x2="2181.73" y1="2136.15" y2="2136.15" gradientUnits="userSpaceOnUse"><stop offset="0" stop-color="#002f90"></stop><stop offset="1" stop-color="#00c1f2"></stop></linearGradient><linearGradient id="b" x1="1073.81" x2="3274.02" y1="2136.15" y2="2136.15" gradientUnits="userSpaceOnUse"><stop offset="0" stop-color="#039"></stop><stop offset="1" stop-color="#0cf"></stop></linearGradient><linearGradient xlink:href="#a" id="d" x1="2216.74" x2="2131.09" y1="123.09" y2="4149.22" gradientUnits="userSpaceOnUse"></linearGradient><path fill="#a62424" d="M2174 123c1112 0 2013 901 2013 2013s-901 2013-2013 2013S161 3248 161 2136 1062 123 2174 123zm0 3952c1071 0 1939-868 1939-1939S3245 197 2174 197 235 1065 235 2136s868 1939 1939 1939zm0-129c1000 0 1810-810 1810-1810S3174 326 2174 326 364 1136 364 2136s810 1810 1810 1810z" opacity="1" data-original="#a62424" class=""></path><path fill="url(#a)" d="M2174 164c1089 0 1972 883 1972 1972s-883 1972-1972 1972S202 3225 202 2136 1085 164 2174 164z" opacity="1" data-original="url(#a)" class=""></path><path fill="#a62a2a" d="M2174 444c935 0 1693 758 1693 1693s-758 1693-1693 1693S481 3072 481 2137 1239 444 2174 444z" opacity="1" data-original="#a62a2a" class=""></path><path fill="#ffffff" d="M2174 476c917 0 1660 743 1660 1660s-743 1660-1660 1660S514 3053 514 2136 1257 476 2174 476z" opacity="1" data-original="#ffffff" class=""></path><path fill="#a62a2a" d="M2174 748c767 0 1389 622 1389 1389s-622 1389-1389 1389S785 2904 785 2137 1407 748 2174 748z" opacity="1" data-original="#a62a2a" class=""></path><path fill="#a62a2a" d="M2174 1000c627 0 1136 509 1136 1136s-509 1136-1136 1136-1136-509-1136-1136 509-1136 1136-1136z" opacity="1" data-original="#a62a2a" class=""></path><path fill="url(#b)" d="M2174 1036c608 0 1100 493 1100 1100 0 608-493 1100-1100 1100-608 0-1100-493-1100-1100 0-608 493-1100 1100-1100z" opacity="1" data-original="url(#b)" class=""></path><path fill="url(#c)" d="M2174 1036h8v2200h-8c-608 0-1100-493-1100-1100 0-608 493-1100 1100-1100z" opacity="1" data-original="url(#c)" class=""></path><path fill="url(#a)" d="M2174 4108c1089 0 1972-883 1972-1972S3263 164 2174 164 202 1047 202 2136s883 1972 1972 1972zm0-131c1017 0 1841-824 1841-1841S3191 295 2174 295 333 1119 333 2136s824 1841 1841 1841z" opacity="1" data-original="url(#a)" class=""></path><path fill="url(#e)" d="m2170 1394 191 566h592l-470 366 139 522-452-304-488 313 165-557-452-357h574z" opacity="1" data-original="url(#e)" class=""></path><path fill="#ffffff" d="m2174 1407 187 553h592l-470 366 139 522-448-302z" opacity="1" data-original="#ffffff" class=""></path></g></svg>